<?xml version="1.0" standalone="no"?>
<!DOCTYPE svg PUBLIC "-//W3C//DTD SVG 20010904//EN"
 "http://www.w3.org/TR/2001/REC-SVG-20010904/DTD/svg10.dtd">
<svg version="1.0" xmlns="http://www.w3.org/2000/svg"
 width="2304.000000pt" height="1728.000000pt" viewBox="0 0 2304.000000 1728.000000"
 preserveAspectRatio="xMidYMid meet">

<g transform="translate(0.000000,1728.000000) scale(0.100000,-0.100000)"
fill="#000000" stroke="none">
<path d="M22850 16580 c-370 -83 -580 -210 -935 -565 -230 -229 -400 -432
-634 -754 -237 -327 -325 -504 -384 -770 -21 -95 -21 -115 -24 -1523 -4 -1422
-4 -1428 16 -1428 20 0 20 8 24 1428 l3 1427 22 97 c59 260 152 440 396 773
354 484 708 857 1004 1059 99 67 231 135 322 165 83 27 317 81 353 81 20 0 27
5 27 20 0 27 -34 26 -190 -10z"/>
<path d="M22873 16265 c-590 -198 -1042 -631 -1256 -1206 -48 -129 -107 -354
-107 -409 0 -68 34 -119 99 -152 l55 -28 688 0 688 0 0 75 0 75 -145 0 -145 0
145 193 145 194 0 651 c0 614 -1 652 -17 652 -10 0 -78 -20 -150 -45z"/>
<path d="M18015 12750 c-340 -25 -708 -168 -972 -378 -398 -318 -645 -793
-672 -1293 -4 -78 -12 -143 -18 -151 -9 -11 12 -9 95 8 59 11 130 24 158 28
l51 6 7 -112 c10 -184 60 -377 141 -545 193 -399 551 -690 980 -797 810 -201
1623 308 1805 1129 11 50 23 141 26 203 7 106 8 112 28 112 22 0 239 -26 289
-35 26 -4 27 -4 13 18 -8 13 -16 66 -20 133 -36 640 -414 1208 -991 1493 -222
110 -423 164 -670 181 -71 5 -134 9 -140 8 -5 0 -55 -4 -110 -8z m325 -595
c504 -82 900 -476 996 -990 23 -121 22 -334 0 -440 -67 -308 -224 -560 -463
-739 -472 -354 -1126 -324 -1554 72 -618 571 -490 1573 251 1970 96 52 262
109 365 127 110 18 291 18 405 0z"/>
<path d="M17654 11893 c-189 -100 -366 -277 -458 -461 l-26 -52 27 -10 c72
-26 91 -35 129 -61 93 -63 164 -178 182 -294 32 -202 -93 -404 -291 -471 l-46
-16 28 -56 c93 -182 277 -368 453 -458 60 -30 66 -30 74 4 22 91 126 218 214
260 25 12 76 29 114 39 180 44 383 -55 471 -229 19 -39 35 -77 35 -84 0 -20
14 -17 68 10 177 91 360 273 448 448 l33 66 -46 16 c-111 38 -203 121 -256
234 -30 63 -32 74 -32 177 0 103 2 114 32 177 44 93 110 161 197 202 39 19 79
37 89 40 16 5 15 10 -9 58 -79 156 -245 335 -395 426 -121 73 -115 72 -133 10
-19 -68 -81 -164 -132 -206 -21 -18 -68 -47 -104 -65 -62 -30 -70 -32 -180
-32 -98 0 -122 4 -165 23 -117 54 -210 155 -245 268 -9 29 -18 56 -21 58 -3 3
-27 -6 -55 -21z m592 -717 c59 -27 107 -82 129 -145 30 -88 13 -169 -52 -241
-93 -104 -244 -113 -345 -22 -170 154 -66 432 162 432 37 0 72 -8 106 -24z"/>
<path d="M13552 10536 c-223 -43 -374 -190 -443 -432 -22 -78 -23 -88 -27
-804 -2 -466 0 -757 7 -815 45 -382 208 -573 506 -591 189 -12 333 50 438 188
l37 50 11 -28 c5 -16 25 -65 43 -109 l32 -80 105 0 104 0 0 760 0 760 -317 3
-318 2 0 -230 0 -230 70 0 70 0 0 -203 c0 -286 -16 -359 -86 -392 -74 -35
-152 6 -173 90 -7 30 -11 275 -11 762 0 664 1 721 18 753 38 76 132 104 190
55 41 -35 52 -88 52 -259 l0 -146 257 0 256 0 -6 143 c-9 218 -42 378 -104
500 -13 26 -52 76 -86 110 -104 107 -213 145 -422 152 -87 3 -154 0 -203 -9z"/>
<path d="M2235 10519 c-3 -8 -4 -597 -3 -1309 l3 -1295 255 0 255 0 3 517 2
516 173 4 c142 4 184 9 239 26 168 55 261 178 313 412 22 100 32 456 16 572
-45 313 -163 479 -387 543 -81 24 -861 36 -869 14z m672 -495 c43 -31 62 -80
73 -189 14 -122 0 -279 -28 -333 -23 -44 -73 -71 -146 -79 l-56 -6 0 318 0
317 65 -4 c44 -3 74 -10 92 -24z"/>
<path d="M3846 10483 c-8 -66 -246 -2536 -246 -2557 0 -15 24 -16 253 -14
l252 3 17 210 c9 116 17 211 17 213 1 1 70 2 155 2 l155 0 5 -42 c3 -24 10
-101 16 -173 6 -71 13 -149 16 -172 l5 -43 245 0 244 0 0 28 c0 37 -240 2564
-245 2580 -3 9 -101 12 -444 12 l-439 0 -6 -47z m454 -420 c0 -10 25 -301 55
-648 30 -346 55 -636 55 -642 0 -10 -30 -13 -115 -13 -113 0 -115 0 -115 23 0
12 20 296 45 632 25 335 45 622 45 637 0 18 5 28 15 28 8 0 15 -8 15 -17z"/>
<path d="M5145 10519 c-3 -8 -4 -597 -3 -1309 l3 -1295 255 0 255 0 3 516 2
517 173 4 c139 4 185 9 237 26 247 80 349 325 337 807 -4 174 -8 213 -31 300
-64 246 -174 371 -367 421 -89 23 -856 34 -864 13z m648 -483 c73 -31 98 -103
98 -293 0 -152 -6 -194 -34 -245 -24 -44 -68 -68 -143 -75 l-54 -6 0 317 0
316 50 0 c28 0 65 -6 83 -14z"/>
<path d="M6580 9221 l0 -1311 255 0 255 0 0 520 0 520 153 0 c267 0 387 48
482 195 152 234 165 837 25 1115 -37 73 -114 159 -175 194 -23 14 -75 35 -116
47 -69 20 -100 22 -476 26 l-403 5 0 -1311z m672 805 c57 -37 84 -161 75 -349
-8 -186 -46 -240 -175 -253 l-62 -7 0 318 0 318 68 -5 c40 -3 79 -12 94 -22z"/>
<path d="M8015 10518 c-3 -7 -4 -596 -3 -1308 l3 -1295 263 -3 262 -2 0 600 0
601 48 -6 c81 -11 111 -25 130 -58 15 -29 17 -83 20 -584 l3 -553 254 0 254 0
3 493 c2 270 0 529 -4 573 -14 153 -74 254 -171 287 l-42 14 42 21 c138 71
197 193 209 436 8 144 -9 356 -36 461 -24 95 -72 186 -119 227 -57 50 -149 86
-248 98 -134 15 -862 13 -868 -2z m712 -493 c33 -23 46 -80 47 -205 1 -128
-13 -196 -50 -235 -21 -23 -30 -25 -104 -25 l-80 0 0 240 0 240 83 0 c57 0 89
-5 104 -15z"/>
<path d="M9465 10518 c-3 -7 -4 -596 -3 -1308 l3 -1295 257 -3 258 -2 2 626 3
625 140 -623 141 -623 259 -3 c143 -1 265 0 271 2 8 3 -45 233 -162 702 -96
384 -174 707 -174 718 1 12 65 283 144 604 78 320 140 584 138 587 -3 3 -121
5 -263 5 l-257 0 -26 -112 c-15 -62 -69 -293 -120 -513 l-94 -400 -4 510 -3
510 -253 3 c-197 2 -254 0 -257 -10z"/>
<path d="M10875 10518 c-3 -7 -4 -596 -3 -1308 l3 -1295 250 0 250 0 0 1305 0
1305 -248 3 c-193 2 -249 0 -252 -10z"/>
<path d="M11590 9220 l0 -1310 253 2 252 3 5 633 5 633 124 -623 c68 -343 126
-629 129 -636 3 -10 60 -12 256 -10 l251 3 0 1305 0 1305 -250 0 -250 0 -5
-600 -5 -599 -115 599 -115 600 -268 3 -267 2 0 -1310z"/>
<path d="M22875 9123 c-748 -29 -1051 -52 -1440 -109 -452 -67 -834 -173
-1315 -365 -113 -44 -227 -89 -255 -99 -299 -106 -1124 -515 -1655 -820 -459
-263 -1205 -745 -1535 -991 l-50 -37 -140 -7 c-660 -30 -1154 -80 -1734 -176
-1105 -181 -1959 -488 -2519 -903 -101 -75 -422 -382 -422 -403 0 -6 -22 -43
-49 -84 -103 -157 -186 -360 -211 -519 -8 -54 -10 -285 -8 -840 4 -742 5 -767
25 -826 70 -207 235 -373 428 -431 55 -16 137 -18 1044 -23 l983 -5 52 -120
c95 -218 200 -371 380 -550 231 -230 538 -394 876 -467 91 -19 135 -22 330
-23 198 0 238 3 335 23 240 51 489 158 675 289 122 87 327 291 412 413 125
177 245 450 279 635 l12 65 2834 0 2833 0 0 2690 c0 1480 -1 2690 -3 2690 -2
0 -275 -279 -607 -620 -568 -583 -607 -620 -640 -621 -19 0 -122 -6 -228 -12
-105 -7 -191 -9 -190 -6 2 3 365 378 808 832 679 698 809 827 833 827 l27 0 0
300 0 300 -47 -2 c-27 -1 -79 -3 -118 -5z m-802 -990 c-192 -197 -550 -563
-795 -813 l-444 -455 -120 -6 c-65 -4 -254 -10 -419 -13 -165 -4 -308 -10
-317 -12 -10 -3 -18 -2 -18 2 0 5 62 71 138 149 76 77 402 411 724 741 342
351 597 604 610 607 311 69 788 147 957 155 31 2 13 -19 -316 -355z m-8287
-2587 c42 -42 44 -78 9 -130 -56 -83 -456 -575 -501 -617 -65 -60 -174 -124
-254 -148 -127 -39 -181 -42 -615 -39 -387 3 -423 4 -455 22 -92 48 -134 119
-135 221 0 60 5 81 33 138 43 86 121 165 205 205 331 160 918 302 1527 371
140 16 148 15 186 -23z m2129 -1091 c166 -29 340 -94 492 -186 282 -170 506
-451 608 -763 55 -170 69 -258 69 -461 1 -153 -2 -195 -22 -285 -60 -267 -178
-490 -360 -682 -231 -242 -488 -378 -821 -433 -146 -25 -382 -16 -534 19 -265
62 -486 184 -683 381 -123 123 -187 208 -258 346 -115 220 -160 410 -160 674
-1 188 17 296 76 464 160 460 573 821 1047 916 183 37 367 41 546 10z"/>
<path d="M15062 4133 c-121 -70 -192 -125 -285 -222 -88 -92 -164 -197 -215
-297 l-31 -61 42 -13 c73 -22 134 -58 200 -120 179 -167 212 -446 76 -648 -61
-92 -169 -174 -266 -203 -24 -7 -43 -17 -43 -23 0 -17 89 -168 140 -237 97
-133 274 -283 417 -354 l68 -34 9 22 c40 102 85 178 136 228 191 192 499 198
699 15 56 -51 115 -141 137 -209 9 -29 18 -54 20 -55 6 -8 155 77 229 132 148
109 281 264 369 430 l37 69 -56 18 c-245 76 -396 357 -330 614 41 158 176 301
328 349 l56 18 -38 77 c-74 146 -221 317 -366 426 -70 52 -211 129 -224 121
-5 -3 -12 -21 -15 -40 -4 -19 -22 -66 -41 -104 -49 -97 -128 -173 -235 -225
-79 -38 -91 -41 -191 -45 -84 -4 -118 -1 -160 13 -173 57 -300 181 -345 339
-10 36 -23 66 -29 66 -6 0 -48 -21 -93 -47z m723 -817 c61 -29 117 -84 147
-145 33 -68 31 -178 -5 -247 -111 -216 -417 -215 -523 1 -71 146 -3 327 149
396 62 28 167 26 232 -5z"/>
</g>
</svg>
